<?xml version="1.0" standalone="no"?>
<svg viewBox="0 0 200 200" xmlns="http://www.w3.org/2000/svg">
  <path fill="#FF0000" d="M27.6,-49.9C38.3,-41.7,51.1,-39.3,55.5,-31.9C60,-24.6,56,-12.3,52.3,-2.2C48.5,8,44.9,15.9,40.5,23.2C36,30.4,30.5,37,23.6,42.7C16.8,48.3,8.4,53.2,1.7,50.3C-5.1,47.4,-10.1,36.9,-17.2,31.3C-24.2,25.7,-33.2,25,-46.3,20.7C-59.4,16.3,-76.5,8.1,-77.7,-0.7C-78.9,-9.5,-64.2,-19.1,-55,-30.1C-45.7,-41.1,-41.9,-53.5,-33.7,-63.1C-25.4,-72.7,-12.7,-79.5,-2.1,-75.8C8.5,-72.1,17,-58.1,27.6,-49.9Z" transform="translate(100 100)" />
</svg>
